<?xml version="1.0" encoding="UTF-8"?>
<svg id="Layer_1" data-name="Layer 1" xmlns="http://www.w3.org/2000/svg" viewBox="0 0 1080 300">
  <defs>
    <style>
      .cls-1 {
        fill: #000;
      }
    </style>
  </defs>
  <path class="cls-1" d="m225.53,188.02l4.14.88-14.56,46.18H83.35v-4.64h6.4c7.19,0,12.34-2.34,15.44-7.03,1.76-2.68,2.63-8.87,2.63-18.57v-109.8c0-10.62-1.17-17.27-3.51-19.95-3.26-3.68-8.12-5.52-14.56-5.52h-6.4v-4.64h77.05v4.64c-9.04-.08-15.37.75-19.01,2.51-3.64,1.76-6.13,3.97-7.47,6.65-1.34,2.68-2.01,9.08-2.01,19.2v106.92c0,6.94.67,11.71,2.01,14.3,1,1.76,2.55,3.06,4.64,3.89,2.09.84,8.62,1.25,19.58,1.25h12.42c13.05,0,22.21-.96,27.48-2.89,5.27-1.92,10.08-5.33,14.43-10.23,4.35-4.89,8.7-12.61,13.05-23.15Z"/>
  <path class="cls-1" d="m338.21,61.03c22.09,0,41.22,8.39,57.41,25.16,16.19,16.77,24.28,37.71,24.28,62.81s-8.16,47.31-24.47,64.38-36.06,25.6-59.23,25.6-43.1-8.32-59.04-24.97c-15.94-16.65-23.91-38.19-23.91-64.63s9.2-49.07,27.61-66.13c15.98-14.81,35.09-22.21,57.35-22.21Zm-2.38,9.16c-15.23,0-27.44,5.65-36.64,16.94-11.46,14.05-17.19,34.63-17.19,61.74s5.94,49.15,17.82,64.13c9.12,11.38,21.17,17.07,36.14,17.07,15.98,0,29.18-6.23,39.59-18.7,10.42-12.46,15.62-32.13,15.62-58.98,0-29.11-5.73-50.82-17.19-65.13-9.2-11.38-21.92-17.07-38.15-17.07Z"/>
  <path class="cls-1" d="m435.47,64.92h46.18l104.03,127.62v-98.13c0-10.46-1.17-16.98-3.51-19.58-3.1-3.51-7.99-5.27-14.68-5.27h-5.9v-4.64h59.23v4.64h-6.02c-7.2,0-12.3,2.18-15.31,6.53-1.84,2.68-2.76,8.78-2.76,18.32v143.43h-4.52l-112.19-137.03v104.78c0,10.46,1.13,16.98,3.39,19.58,3.18,3.51,8.07,5.27,14.68,5.27h6.02v4.64h-59.23v-4.64h5.9c7.28,0,12.42-2.17,15.43-6.53,1.84-2.68,2.76-8.79,2.76-18.32v-118.33c-4.94-5.77-8.68-9.58-11.23-11.42-2.55-1.84-6.3-3.55-11.23-5.14-2.43-.75-6.11-1.13-11.04-1.13v-4.64Z"/>
  <path class="cls-1" d="m788.22,61.03l3.89,57.85h-3.89c-5.19-17.32-12.59-29.78-22.21-37.4-9.62-7.61-21.17-11.42-34.63-11.42-11.29,0-21.5,2.87-30.62,8.6-9.12,5.73-16.29,14.87-21.52,27.42-5.23,12.55-7.84,28.15-7.84,46.81,0,15.39,2.47,28.74,7.4,40.03,4.94,11.29,12.36,19.95,22.27,25.98,9.91,6.02,21.23,9.04,33.94,9.04,11.04,0,20.79-2.36,29.24-7.09,8.45-4.73,17.74-14.12,27.86-28.17l3.89,2.51c-8.53,15.14-18.49,26.23-29.87,33.25-11.38,7.03-24.89,10.54-40.53,10.54-28.19,0-50.03-10.46-65.5-31.37-11.54-15.56-17.32-33.88-17.32-54.96,0-16.98,3.81-32.58,11.42-46.81,7.61-14.22,18.09-25.24,31.44-33.07,13.34-7.82,27.92-11.73,43.73-11.73,12.3,0,24.43,3.01,36.39,9.04,3.51,1.84,6.02,2.76,7.53,2.76,2.26,0,4.22-.79,5.9-2.38,2.17-2.26,3.72-5.4,4.64-9.41h4.39Z"/>
  <path class="cls-1" d="m931.52,178.11h-65.88l-11.54,26.85c-2.84,6.61-4.27,11.54-4.27,14.81,0,2.59,1.23,4.87,3.7,6.84,2.47,1.97,7.8,3.24,16,3.83v4.64h-53.58v-4.64c7.11-1.26,11.71-2.89,13.8-4.89,4.27-4.02,8.99-12.17,14.18-24.47l59.86-140.04h4.39l59.23,141.55c4.77,11.38,9.1,18.76,12.99,22.15,3.89,3.39,9.31,5.29,16.25,5.71v4.64h-67.14v-4.64c6.78-.33,11.36-1.46,13.74-3.39,2.38-1.92,3.58-4.27,3.58-7.03,0-3.68-1.67-9.49-5.02-17.44l-10.29-24.47Zm-3.51-9.29l-28.86-68.77-29.62,68.77h58.48Z"/>
</svg>